<?xml version="1.0" encoding="UTF-8" standalone="no"?>
<!DOCTYPE svg PUBLIC "-//W3C//DTD SVG 1.1//EN" "http://www.w3.org/Graphics/SVG/1.1/DTD/svg11.dtd">
<svg xmlns="http://www.w3.org/2000/svg" xmlns:xlink="http://www.w3.org/1999/xlink" version="1.1" width="160pt" height="150pt" viewBox="0 0 160 150">
<g enable-background="new">
<g>
<clipPath id="cp_bear-face0">
<path transform="matrix(1,0,0,-1,0,150)" d="M 22.95507 97 C 24.55025 99.08052 26.2881 101.0629 28.16211 102.9537 C 24.34924 105.3679 21.79111 109.6107 21.79111 114.4914 C 21.79111 122.0186 27.85734 128.1392 35.31774 128.1392 C 41.99027 128.1392 47.51181 123.2323 48.62714 116.8173 C 51.00695 117.8772 53.46457 118.8128 56 119.6175 C 53.70774 128.9962 45.3233 136 35.31774 136 C 23.56461 136 14 126.3498 14 114.4914 C 14 107.2718 17.54701 100.8961 22.95507 97 Z " fill-rule="evenodd"/>
</clipPath>
<g clip-path="url(#cp_bear-face0)">
<clipPath id="cp_bear-face1">
<path transform="matrix(1,0,0,-1,0,150)" d="M -108 -299 L 267 -299 L 267 368 L -108 368 Z "/>
</clipPath>
<g clip-path="url(#cp_bear-face1)">
<path transform="matrix(1,0,0,-1,0,150)" d="M 9 92 L 61 92 L 61 141 L 9 141 Z " fill="#e990f9"/>
</g>
</g>
<clipPath id="cp_bear-face2">
<path transform="matrix(1,0,0,-1,0,150)" d="M .1956 149.927 L 159.8411 149.927 L 159.8411 .003255319 L .1956 .003255319 L .1956 149.927 Z " fill-rule="evenodd"/>
</clipPath>
<g clip-path="url(#cp_bear-face2)">
<clipPath id="cp_bear-face3">
<path transform="matrix(1,0,0,-1,0,150)" d="M -108 -299 L 267 -299 L 267 368 L -108 368 Z "/>
</clipPath>
<g clip-path="url(#cp_bear-face3)">
<g>
<clipPath id="cp_bear-face4">
<path transform="matrix(1,0,0,-1,0,150)" d="M 0 0 L 160 0 L 160 150 L 0 150 Z "/>
</clipPath>
<g clip-path="url(#cp_bear-face4)">
<clipPath id="cp_bear-face5">
<path transform="matrix(1,0,0,-1,0,150)" d="M 124.4538 127.7876 C 131.955 127.7876 138.0545 121.6969 138.0545 114.2064 C 138.0545 109.2615 135.365 104.9613 131.4073 102.5849 C 133.3047 100.7033 135.0488 98.70779 136.6396 96.62113 C 142.2175 100.4852 145.885 106.921 145.885 114.1933 C 145.885 126.0069 136.2713 135.5971 124.4538 135.5971 C 114.3543 135.5971 105.8848 128.5884 103.6321 119.1935 C 106.1782 118.3797 108.6623 117.4259 111.0552 116.3679 C 112.1147 122.8297 117.6925 127.7876 124.4538 127.7876 Z " fill-rule="evenodd"/>
</clipPath>
<g clip-path="url(#cp_bear-face5)">
<clipPath id="cp_bear-face6">
<path transform="matrix(1,0,0,-1,0,150)" d="M 0 0 L 160 0 L 160 150 L 0 150 Z "/>
</clipPath>
<g clip-path="url(#cp_bear-face6)">
<path transform="matrix(1,0,0,-1,0,150)" d="M 98.63214 91.62113 L 150.88501 91.62113 L 150.88501 140.59708 L 98.63214 140.59708 Z " fill="#e990f9"/>
</g>
</g>
<clipPath id="cp_bear-face7">
<path transform="matrix(1,0,0,-1,0,150)" d="M 4.81502 65.73466 C 4.81502 29.49319 38.54624 .003255319 80.02322 .003255319 C 121.5002 .003255319 155.2314 29.49319 155.2314 65.73466 C 155.2314 74.01294 153.5004 82.07311 150.0611 89.70357 C 156.3137 96.31513 159.8411 105.0915 159.8411 114.2064 C 159.8411 133.9043 143.7953 149.927 124.0723 149.927 C 110.5466 149.927 98.39984 142.4365 92.28734 130.5969 C 84.13734 131.7688 75.7298 131.7688 67.57002 130.5741 C 61.4673 142.4235 49.3075 149.927 35.77198 149.927 C 16.04572 149.927 0 133.9043 0 114.2064 C 0 105.0133 3.57948 96.18817 9.92018 89.5636 C 6.53304 81.97219 4.81502 73.96085 4.81502 65.73466 Z M 7.81748 114.2064 C 7.81748 129.5943 20.36196 142.1207 35.77198 142.1207 C 47.16894 142.1207 57.33036 135.3041 61.6466 124.7503 L 62.84302 121.8238 L 65.96284 122.3837 C 75.14626 124.0765 84.74696 124.0765 93.9043 122.4228 L 97.01108 121.8629 L 98.2075 124.7861 C 102.5368 135.3171 112.6852 142.1207 124.0723 142.1207 C 139.4791 142.1207 152.0236 129.5943 152.0236 114.2064 C 152.0236 106.322 148.6234 98.75662 142.713 93.4537 L 140.4864 91.45819 L 141.8361 88.78883 C 144.1539 84.22162 145.7579 79.4656 146.625 74.59564 C 147.1955 71.60726 147.4889 68.55702 147.4889 65.42866 C 147.4889 49.54596 139.8866 35.16396 127.6127 24.76321 C 115.4105 14.29736 98.57588 7.825787 80.02322 7.825787 C 66.98322 7.825787 54.80712 11.02902 44.4827 16.55981 C 25.1998 26.67083 12.35214 44.77691 12.35214 65.42866 C 12.35214 73.79483 14.47766 81.7313 18.26252 88.88974 L 19.4948 91.35728 L 17.25518 93.35279 C 11.25678 98.6557 7.81748 106.2601 7.81748 114.2064 Z " fill-rule="evenodd"/>
</clipPath>
<g clip-path="url(#cp_bear-face7)">
<clipPath id="cp_bear-face8">
<path transform="matrix(1,0,0,-1,0,150)" d="M 0 0 L 160 0 L 160 150 L 0 150 Z "/>
</clipPath>
<g clip-path="url(#cp_bear-face8)">
<path transform="matrix(1,0,0,-1,0,150)" d="M -5 -4.996745 L 164.8411 -4.996745 L 164.8411 154.92696 L -5 154.92696 Z " fill="#e990f9"/>
</g>
</g>
</g>
</g>
</g>
</g>
<clipPath id="cp_bear-face9">
<path transform="matrix(1,0,0,-1,0,150)" d="M 32 46.49509 C 32 28.0199 53.76483 13 80.5 13 C 107.245 13 129 28.0199 129 46.49509 C 129 64.967 107.245 80 80.5 80 C 53.76483 80 32 64.967 32 46.49509 Z M 80.5 50.42201 C 74.35575 50.42201 69.6045 53.3631 69.6045 55.88498 C 69.6045 58.40358 74.35575 61.34795 80.5 61.34795 C 86.64425 61.34795 91.3955 58.40358 91.3955 55.88498 C 91.3955 53.3631 86.64425 50.42201 80.5 50.42201 Z M 80.5 72.13306 C 102.9156 72.13306 121.1423 60.63069 121.1423 46.49509 C 121.1423 33.1881 104.9985 22.23596 84.42068 20.98485 L 84.42068 42.84656 C 92.99124 44.10094 99.24993 49.37068 99.24993 55.88498 C 99.24993 63.35562 91.01291 69.20179 80.5 69.20179 C 69.98709 69.20179 61.7468 63.35562 61.7468 55.88498 C 61.7468 49.37068 68.00549 44.10094 76.57605 42.84656 L 76.57605 20.98485 C 56.00148 22.23596 39.85444 33.1881 39.85444 46.49509 C 39.85444 60.63069 58.08118 72.13306 80.5 72.13306 Z " fill-rule="evenodd"/>
</clipPath>
<g clip-path="url(#cp_bear-face9)">
<clipPath id="cp_bear-face10">
<path transform="matrix(1,0,0,-1,0,150)" d="M -108 -299 L 267 -299 L 267 368 L -108 368 Z "/>
</clipPath>
<g clip-path="url(#cp_bear-face10)">
<path transform="matrix(1,0,0,-1,0,150)" d="M 27 8 L 134 8 L 134 85 L 27 85 Z " fill="#e990f9"/>
</g>
</g>
<clipPath id="cp_bear-face11">
<path transform="matrix(1,0,0,-1,0,150)" d="M 50.99879 89 C 44.33374 89 44.33374 79 50.99879 79 C 57.66061 79 57.67353 89 50.99879 89 Z " fill-rule="evenodd"/>
</clipPath>
<g clip-path="url(#cp_bear-face11)">
<clipPath id="cp_bear-face12">
<path transform="matrix(1,0,0,-1,0,150)" d="M -108 -299 L 267 -299 L 267 368 L -108 368 Z "/>
</clipPath>
<g clip-path="url(#cp_bear-face12)">
<path transform="matrix(1,0,0,-1,0,150)" d="M 41 74 L 61 74 L 61 94 L 41 94 Z " fill="#e990f9"/>
</g>
</g>
<clipPath id="cp_bear-face13">
<path transform="matrix(1,0,0,-1,0,150)" d="M 108.9988 79 C 115.6671 79 115.6671 89 108.9988 89 C 102.3337 89 102.3337 79 108.9988 79 Z " fill-rule="evenodd"/>
</clipPath>
<g clip-path="url(#cp_bear-face13)">
<clipPath id="cp_bear-face14">
<path transform="matrix(1,0,0,-1,0,150)" d="M -108 -299 L 267 -299 L 267 368 L -108 368 Z "/>
</clipPath>
<g clip-path="url(#cp_bear-face14)">
<path transform="matrix(1,0,0,-1,0,150)" d="M 99 74 L 119 74 L 119 94 L 99 94 Z " fill="#e990f9"/>
</g>
</g>
</g>
</g>
</svg>
