<?xml version="1.0" encoding="UTF-8" standalone="no"?>
<!DOCTYPE svg PUBLIC "-//W3C//DTD SVG 1.1//EN" "http://www.w3.org/Graphics/SVG/1.1/DTD/svg11.dtd">
<svg xmlns="http://www.w3.org/2000/svg" xmlns:xlink="http://www.w3.org/1999/xlink" version="1.1" width="30pt" height="37pt" viewBox="0 0 30 37">
<g enable-background="new">
<clipPath id="cp_bear0">
<path transform="matrix(1,0,0,-1,0,37)" d="M 22.81439 19.01944 C 24.52171 20.80564 25.56088 23.16967 25.56088 25.76274 C 25.56088 27.05539 25.30247 28.29101 24.83184 29.42673 C 26.25235 30.01936 27.25005 31.41571 27.25005 33.04362 C 27.25005 35.20875 25.48539 36.9639 23.30852 36.9639 C 21.73947 36.9639 20.38482 36.05199 19.75042 34.73217 C 18.28517 35.44248 16.6233 35.84398 14.86217 35.84398 C 13.10104 35.84398 11.43872 35.44248 9.973564 34.73217 C 9.339158 36.05199 7.984513 36.9639 6.415466 36.9639 C 4.238597 36.9639 2.473929 35.20875 2.473929 33.04362 C 2.473929 31.41571 3.47163 30.01936 4.89251 29.42673 C 4.421787 28.29128 4.16347 27.05539 4.16347 25.76274 C 4.16347 23.16967 5.202636 20.80564 6.90987 19.01944 C 3.916767 16.20284 -.8889122 11.67233 .249879 7.14109 C .7765846 5.045807 2.150647 4.216285 3.605189 4.141202 C 3.708353 6.822439 5.683249 8.961129 8.105007 8.961129 C 10.59273 8.961129 12.60981 6.70431 12.60981 3.920556 C 12.60981 2.336685 11.95617 .9241878 10.93543 .0001804878 L 18.78883 .0001804878 C 17.76772 .9241878 17.11453 2.336685 17.11453 3.920556 C 17.11453 6.70431 19.13126 8.961129 21.61925 8.961129 C 24.0411 8.961129 26.01563 6.822439 26.11907 4.141202 C 27.57334 4.216285 28.9474 5.045807 29.4741 7.14109 C 30.61317 11.67233 25.80758 16.20284 22.81439 19.01944 Z M 6.002902 31.41598 C 5.269597 31.59935 4.726287 32.2575 4.726287 33.04362 C 4.726287 33.97141 5.482638 34.72369 6.415466 34.72369 C 7.180709 34.72369 7.826093 34.21742 8.033781 33.52371 C 7.256198 32.91565 6.571799 32.20597 6.002902 31.41598 Z M 19.36689 26.60282 C 19.83335 26.60282 20.21152 26.22668 20.21152 25.76274 C 20.21152 25.2988 19.83335 24.92266 19.36689 24.92266 C 18.90016 24.92266 18.52235 25.2988 18.52235 25.76274 C 18.52235 26.22668 18.90016 26.60282 19.36689 26.60282 Z M 10.35737 26.60282 C 10.82382 26.60282 11.202 26.22668 11.202 25.76274 C 11.202 25.2988 10.82382 24.92266 10.35737 24.92266 C 9.890634 24.92266 9.512821 25.2988 9.512821 25.76274 C 9.512821 26.22668 9.890634 26.60282 10.35737 26.60282 Z M 14.86217 15.6815 C 11.13005 15.6815 8.105007 17.68762 8.105007 20.16229 C 8.105007 22.6366 11.13005 24.64281 14.86217 24.64281 C 18.59393 24.64281 21.61925 22.6366 21.61925 20.16229 C 21.61925 17.68762 18.59393 15.6815 14.86217 15.6815 Z M 21.6902 33.52371 C 21.89789 34.21742 22.54364 34.72369 23.30852 34.72369 C 24.24134 34.72369 24.9977 33.97141 24.9977 33.04362 C 24.9977 32.2575 24.45439 31.59935 23.72135 31.41598 C 23.15255 32.20597 22.46778 32.91565 21.6902 33.52371 Z " fill-rule="evenodd"/>
</clipPath>
<g clip-path="url(#cp_bear0)">
<clipPath id="cp_bear1">
<path transform="matrix(1,0,0,-1,0,37)" d="M -25 -610 L 350 -610 L 350 57 L -25 57 Z "/>
</clipPath>
<g clip-path="url(#cp_bear1)">
<path transform="matrix(1,0,0,-1,0,37)" d="M -4.921291 -4.99982 L 34.645349 -4.99982 L 34.645349 41.963899 L -4.921291 41.963899 Z " fill="#ffffff"/>
</g>
</g>
<clipPath id="cp_bear2">
<path transform="matrix(1,0,0,-1,0,37)" d="M 10.00478 3.640259 C 10.00478 2.557693 9.122578 1.680341 8.033781 1.680341 C 6.945347 1.680341 6.063149 2.557693 6.063149 3.640259 C 6.063149 4.722824 6.945347 5.600627 8.033781 5.600627 C 9.122578 5.600627 10.00478 4.722824 10.00478 3.640259 Z " fill-rule="evenodd"/>
</clipPath>
<g clip-path="url(#cp_bear2)">
<clipPath id="cp_bear3">
<path transform="matrix(1,0,0,-1,0,37)" d="M -25 -610 L 350 -610 L 350 57 L -25 57 Z "/>
</clipPath>
<g clip-path="url(#cp_bear3)">
<path transform="matrix(1,0,0,-1,0,37)" d="M 1.063149 -3.319659 L 15.00478 -3.319659 L 15.00478 10.600631 L 1.063149 10.600631 Z " fill="#ffffff"/>
</g>
</g>
<clipPath id="cp_bear4">
<path transform="matrix(1,0,0,-1,0,37)" d="M 23.65975 3.640259 C 23.65975 2.557693 22.77755 1.680341 21.68911 1.680341 C 20.60068 1.680341 19.71812 2.557693 19.71812 3.640259 C 19.71812 4.722824 20.60068 5.600627 21.68911 5.600627 C 22.77755 5.600627 23.65975 4.722824 23.65975 3.640259 Z " fill-rule="evenodd"/>
</clipPath>
<g clip-path="url(#cp_bear4)">
<clipPath id="cp_bear5">
<path transform="matrix(1,0,0,-1,0,37)" d="M -25 -610 L 350 -610 L 350 57 L -25 57 Z "/>
</clipPath>
<g clip-path="url(#cp_bear5)">
<path transform="matrix(1,0,0,-1,0,37)" d="M 14.71812 -3.319659 L 28.65975 -3.319659 L 28.65975 10.600631 L 14.71812 10.600631 Z " fill="#ffffff"/>
</g>
</g>
<clipPath id="cp_bear6">
<path transform="matrix(1,0,0,-1,0,37)" d="M 14.86217 22.40224 C 13.61813 22.40224 12.60981 22.2721 12.60981 21.28222 C 12.60981 20.29242 13.61813 19.042 14.86217 19.042 C 16.10621 19.042 17.11453 20.29242 17.11453 21.28222 C 17.11453 22.2721 16.10621 22.40224 14.86217 22.40224 Z " fill-rule="evenodd"/>
</clipPath>
<g clip-path="url(#cp_bear6)">
<clipPath id="cp_bear7">
<path transform="matrix(1,0,0,-1,0,37)" d="M -25 -610 L 350 -610 L 350 57 L -25 57 Z "/>
</clipPath>
<g clip-path="url(#cp_bear7)">
<path transform="matrix(1,0,0,-1,0,37)" d="M 7.609814 14.042 L 22.114535 14.042 L 22.114535 27.40223 L 7.609814 27.40223 Z " fill="#ffffff"/>
</g>
</g>
</g>
</svg>
