<?xml version="1.0" encoding="UTF-8" standalone="no"?>
<!DOCTYPE svg PUBLIC "-//W3C//DTD SVG 1.1//EN" "http://www.w3.org/Graphics/SVG/1.1/DTD/svg11.dtd">
<svg xmlns="http://www.w3.org/2000/svg" xmlns:xlink="http://www.w3.org/1999/xlink" version="1.1" width="18pt" height="18pt" viewBox="0 0 18 18">
<g enable-background="new">
<clipPath id="cp_close0">
<path transform="matrix(1,0,0,-1,0,18)" d="M 11.281 8.481 C 11.121 8.641 11.121 8.879 11.281 9.04 L 17.281 15.04 C 17.441 15.2 17.52 15.442 17.52 15.598 C 17.52 15.758 17.441 16 17.281 16.161 L 16.16 17.282 C 16 17.442 15.762 17.52 15.602 17.52 C 15.359 17.52 15.199 17.442 15.039 17.282 L 9.039 11.282 C 8.879 11.122 8.641 11.122 8.48 11.282 L 2.48 17.282 C 2.32 17.442 2.078 17.52 1.922 17.52 C 1.762 17.52 1.52 17.442 1.359 17.282 L .238 16.161 C .078 16 0 15.758 0 15.598 C 0 15.442 .078 15.2 .238 15.04 L 6.238 9.04 C 6.398 8.879 6.398 8.641 6.238 8.481 L .238 2.481 C .078 2.321 0 2.079 0 1.918 C 0 1.758 .078 1.52 .238 1.36 L 1.359 .239 C 1.52 .079 1.762 0 1.922 0 C 2.078 0 2.32 .079 2.48 .239 L 8.48 6.239 C 8.641 6.399 8.879 6.399 9.039 6.239 L 15.039 .239 C 15.199 .079 15.441 0 15.602 0 C 15.762 0 16 .079 16.16 .239 L 17.281 1.36 C 17.441 1.52 17.52 1.758 17.52 1.918 C 17.52 2.079 17.441 2.321 17.281 2.481 L 11.281 8.481 Z " fill-rule="evenodd"/>
</clipPath>
<g clip-path="url(#cp_close0)">
<clipPath id="cp_close1">
<path transform="matrix(1,0,0,-1,0,18)" d="M -302 -470 L 73 -470 L 73 197 L -302 197 Z "/>
</clipPath>
<g clip-path="url(#cp_close1)">
<path transform="matrix(1,0,0,-1,0,18)" d="M -5 -5 L 22.52 -5 L 22.52 22.52 L -5 22.52 Z " fill="#ffffff"/>
</g>
</g>
</g>
</svg>
