<?xml version="1.0" encoding="UTF-8" standalone="no"?>
<!DOCTYPE svg PUBLIC "-//W3C//DTD SVG 1.1//EN" "http://www.w3.org/Graphics/SVG/1.1/DTD/svg11.dtd">
<svg xmlns="http://www.w3.org/2000/svg" xmlns:xlink="http://www.w3.org/1999/xlink" version="1.1" width="87pt" height="87pt" viewBox="0 0 87 87">
<g enable-background="new">
<clipPath id="cp_jog0">
<path transform="matrix(1,0,0,-1,0,87)" d="M 43.5 0 C 67.52439 0 87 19.47561 87 43.5 C 87 67.52439 67.52439 87 43.5 87 C 19.47561 87 0 67.52439 0 43.5 C 0 19.47561 19.47561 0 43.5 0 Z " fill-rule="evenodd"/>
</clipPath>
<g clip-path="url(#cp_jog0)">
<clipPath id="cp_jog1">
<path transform="matrix(1,0,0,-1,0,87)" d="M -66 -395 L 309 -395 L 309 272 L -66 272 Z "/>
</clipPath>
<g clip-path="url(#cp_jog1)">
<path transform="matrix(1,0,0,-1,0,87)" d="M -5 -5 L 92 -5 L 92 92 L -5 92 Z " fill="#e990f9"/>
</g>
</g>
<clipPath id="cp_jog2">
<path transform="matrix(1,0,0,-1,0,87)" d="M 32.93198 58.14053 L 49.86889 58.14053 C 50.31395 58.14053 50.67504 58.50315 50.67504 58.95011 C 50.67504 59.39707 50.31395 59.75899 49.86889 59.75899 L 32.93198 59.75899 C 32.48692 59.75899 32.12597 59.39707 32.12597 58.95011 C 32.12597 58.50315 32.48692 58.14053 32.93198 58.14053 Z " fill-rule="evenodd"/>
</clipPath>
<g clip-path="url(#cp_jog2)">
<clipPath id="cp_jog3">
<path transform="matrix(1,0,0,-1,0,87)" d="M -66 -395 L 309 -395 L 309 272 L -66 272 Z "/>
</clipPath>
<g clip-path="url(#cp_jog3)">
<path transform="matrix(1,0,0,-1,0,87)" d="M 27.12597 53.14053 L 55.67504 53.14053 L 55.67504 64.75899 L 27.12597 64.75899 Z " fill="#ffffff"/>
</g>
</g>
<clipPath id="cp_jog4">
<path transform="matrix(1,0,0,-1,0,87)" d="M 17.78419 50.22805 L 34.7211 50.22805 C 35.16616 50.22805 35.52711 50.59011 35.52711 51.03707 C 35.52711 51.48403 35.16616 51.84651 34.7211 51.84651 L 17.78419 51.84651 C 17.33913 51.84651 16.97804 51.48403 16.97804 51.03707 C 16.97804 50.59011 17.33913 50.22805 17.78419 50.22805 Z " fill-rule="evenodd"/>
</clipPath>
<g clip-path="url(#cp_jog4)">
<clipPath id="cp_jog5">
<path transform="matrix(1,0,0,-1,0,87)" d="M -66 -395 L 309 -395 L 309 272 L -66 272 Z "/>
</clipPath>
<g clip-path="url(#cp_jog5)">
<path transform="matrix(1,0,0,-1,0,87)" d="M 11.97804 45.22805 L 40.52711 45.22805 L 40.52711 56.84651 L 11.97804 56.84651 Z " fill="#ffffff"/>
</g>
</g>
<clipPath id="cp_jog6">
<path transform="matrix(1,0,0,-1,0,87)" d="M 22.33105 41.90125 C 22.33105 41.45486 22.69143 41.09237 23.1365 41.09237 L 40.0741 41.09237 C 40.51917 41.09237 40.87955 41.45486 40.87955 41.90125 C 40.87955 42.34821 40.51917 42.71083 40.0741 42.71083 L 23.1365 42.71083 C 22.69143 42.71083 22.33105 42.34821 22.33105 41.90125 Z " fill-rule="evenodd"/>
</clipPath>
<g clip-path="url(#cp_jog6)">
<clipPath id="cp_jog7">
<path transform="matrix(1,0,0,-1,0,87)" d="M -66 -395 L 309 -395 L 309 272 L -66 272 Z "/>
</clipPath>
<g clip-path="url(#cp_jog7)">
<path transform="matrix(1,0,0,-1,0,87)" d="M 17.33105 36.09237 L 45.87955 36.09237 L 45.87955 47.71083 L 17.33105 47.71083 Z " fill="#ffffff"/>
</g>
</g>
<clipPath id="cp_jog8">
<path transform="matrix(1,0,0,-1,0,87)" d="M 32.02427 32.49618 L 16.80601 32.49618 C 16.36095 32.49618 16 32.13412 16 31.68716 C 16 31.2402 16.36095 30.87772 16.80601 30.87772 L 32.02427 30.87772 C 32.46934 30.87772 32.82986 31.2402 32.82986 31.68716 C 32.82986 32.13412 32.46934 32.49618 32.02427 32.49618 Z " fill-rule="evenodd"/>
</clipPath>
<g clip-path="url(#cp_jog8)">
<clipPath id="cp_jog9">
<path transform="matrix(1,0,0,-1,0,87)" d="M -66 -395 L 309 -395 L 309 272 L -66 272 Z "/>
</clipPath>
<g clip-path="url(#cp_jog9)">
<path transform="matrix(1,0,0,-1,0,87)" d="M 11 25.87772 L 37.82986 25.87772 L 37.82986 37.496179 L 11 37.496179 Z " fill="#ffffff"/>
</g>
</g>
<clipPath id="cp_jog10">
<path transform="matrix(1,0,0,-1,0,87)" d="M 59.40668 53.06661 C 61.83751 53.06661 63.80794 55.046 63.80794 57.48718 C 63.80794 59.92836 61.83751 61.90719 59.40668 61.90719 C 56.97528 61.90719 55.00485 59.9278 55.00485 57.48718 C 55.00485 55.046 56.97528 53.06661 59.40668 53.06661 Z " fill-rule="evenodd"/>
</clipPath>
<g clip-path="url(#cp_jog10)">
<clipPath id="cp_jog11">
<path transform="matrix(1,0,0,-1,0,87)" d="M -66 -395 L 309 -395 L 309 272 L -66 272 Z "/>
</clipPath>
<g clip-path="url(#cp_jog11)">
<path transform="matrix(1,0,0,-1,0,87)" d="M 50.00485 48.06661 L 68.80794 48.06661 L 68.80794 66.90719 L 50.00485 66.90719 Z " fill="#ffffff"/>
</g>
</g>
<clipPath id="cp_jog12">
<path transform="matrix(1,0,0,-1,0,87)" d="M 66.64712 54.33968 C 64.11951 50.78435 60.73526 50.37271 57.09344 52.54407 C 56.84559 52.69141 55.74559 53.29998 55.5021 53.4452 C 49.64368 56.93809 43.7923 55.56854 39.86747 50.04935 C 38.20031 47.70197 42.05706 45.47706 43.70607 47.79676 C 45.73362 50.64859 48.31173 51.47358 51.13164 50.57019 C 49.68757 48.05343 48.42552 45.55207 46.64414 41.99844 C 44.86276 38.4441 40.92907 35.60625 37.14968 37.82564 C 34.42219 39.42645 31.96266 35.49196 34.68199 33.8961 C 39.84215 30.86783 45.89243 32.72743 48.98101 36.66403 C 49.0882 36.60668 49.20129 36.55469 49.3255 36.51118 C 51.84875 35.62828 55.15648 33.27751 56.16421 32.4449 C 57.17137 31.61158 58.90281 27.36816 59.93037 25.23592 C 61.17765 22.64909 65.20474 24.53299 63.95297 27.1314 C 62.78812 29.55054 60.83203 34.37894 59.30666 35.60017 C 58.08302 36.57955 55.70648 38.40271 53.69216 39.43746 C 55.05492 42.08941 56.47465 44.71268 57.96922 47.29075 C 62.73214 45.82514 67.25972 47.55181 70.48404 52.08765 C 72.15331 54.43461 68.29712 56.66008 66.64712 54.33968 Z " fill-rule="evenodd"/>
</clipPath>
<g clip-path="url(#cp_jog12)">
<clipPath id="cp_jog13">
<path transform="matrix(1,0,0,-1,0,87)" d="M -66 -395 L 309 -395 L 309 272 L -66 272 Z "/>
</clipPath>
<g clip-path="url(#cp_jog13)">
<path transform="matrix(1,0,0,-1,0,87)" d="M 28.4997 19.00008 L 75.89433 19.00008 L 75.89433 60.36141 L 28.4997 60.36141 Z " fill="#ffffff"/>
</g>
</g>
</g>
</svg>
