<?xml version="1.0" encoding="UTF-8" standalone="no"?>
<!DOCTYPE svg PUBLIC "-//W3C//DTD SVG 1.1//EN" "http://www.w3.org/Graphics/SVG/1.1/DTD/svg11.dtd">
<svg xmlns="http://www.w3.org/2000/svg" xmlns:xlink="http://www.w3.org/1999/xlink" version="1.1" width="98pt" height="37pt" viewBox="0 0 98 37">
<g enable-background="new">
<clipPath id="cp_logo0">
<path transform="matrix(1,0,0,-1,0,37)" d="M 22.81439 19.01944 C 24.52171 20.80564 25.56088 23.16967 25.56088 25.76274 C 25.56088 27.05539 25.30247 28.29101 24.83184 29.42673 C 26.25235 30.01936 27.25005 31.41571 27.25005 33.04362 C 27.25005 35.20875 25.48539 36.9639 23.30852 36.9639 C 21.73947 36.9639 20.38482 36.05199 19.75042 34.73217 C 18.28517 35.44248 16.6233 35.84398 14.86217 35.84398 C 13.10104 35.84398 11.43872 35.44248 9.973564 34.73217 C 9.339158 36.05199 7.984513 36.9639 6.415466 36.9639 C 4.238597 36.9639 2.473929 35.20875 2.473929 33.04362 C 2.473929 31.41571 3.47163 30.01936 4.89251 29.42673 C 4.421787 28.29128 4.16347 27.05539 4.16347 25.76274 C 4.16347 23.16967 5.202636 20.80564 6.90987 19.01944 C 3.916767 16.20284 -.8889122 11.67233 .249879 7.14109 C .7765846 5.045807 2.150647 4.216285 3.605189 4.141202 C 3.708353 6.822439 5.683249 8.961129 8.105007 8.961129 C 10.59273 8.961129 12.60981 6.70431 12.60981 3.920556 C 12.60981 2.336685 11.95617 .9241878 10.93543 .0001804878 L 18.78883 .0001804878 C 17.76772 .9241878 17.11453 2.336685 17.11453 3.920556 C 17.11453 6.70431 19.13126 8.961129 21.61925 8.961129 C 24.0411 8.961129 26.01563 6.822439 26.11907 4.141202 C 27.57334 4.216285 28.9474 5.045807 29.4741 7.14109 C 30.61317 11.67233 25.80758 16.20284 22.81439 19.01944 Z M 6.002902 31.41598 C 5.269597 31.59935 4.726287 32.2575 4.726287 33.04362 C 4.726287 33.97141 5.482638 34.72369 6.415466 34.72369 C 7.180709 34.72369 7.826093 34.21742 8.033781 33.52371 C 7.256198 32.91565 6.571799 32.20597 6.002902 31.41598 Z M 19.36689 26.60282 C 19.83335 26.60282 20.21152 26.22668 20.21152 25.76274 C 20.21152 25.2988 19.83335 24.92266 19.36689 24.92266 C 18.90016 24.92266 18.52235 25.2988 18.52235 25.76274 C 18.52235 26.22668 18.90016 26.60282 19.36689 26.60282 Z M 10.35737 26.60282 C 10.82382 26.60282 11.202 26.22668 11.202 25.76274 C 11.202 25.2988 10.82382 24.92266 10.35737 24.92266 C 9.890634 24.92266 9.512821 25.2988 9.512821 25.76274 C 9.512821 26.22668 9.890634 26.60282 10.35737 26.60282 Z M 14.86217 15.6815 C 11.13005 15.6815 8.105007 17.68762 8.105007 20.16229 C 8.105007 22.6366 11.13005 24.64281 14.86217 24.64281 C 18.59393 24.64281 21.61925 22.6366 21.61925 20.16229 C 21.61925 17.68762 18.59393 15.6815 14.86217 15.6815 Z M 21.6902 33.52371 C 21.89789 34.21742 22.54364 34.72369 23.30852 34.72369 C 24.24134 34.72369 24.9977 33.97141 24.9977 33.04362 C 24.9977 32.2575 24.45439 31.59935 23.72135 31.41598 C 23.15255 32.20597 22.46778 32.91565 21.6902 33.52371 Z " fill-rule="evenodd"/>
</clipPath>
<g clip-path="url(#cp_logo0)">
<clipPath id="cp_logo1">
<path transform="matrix(1,0,0,-1,0,37)" d="M -25 -610 L 350 -610 L 350 57 L -25 57 Z "/>
</clipPath>
<g clip-path="url(#cp_logo1)">
<path transform="matrix(1,0,0,-1,0,37)" d="M -4.921291 -4.99982 L 34.645349 -4.99982 L 34.645349 41.963899 L -4.921291 41.963899 Z " fill="#ffffff"/>
</g>
</g>
<clipPath id="cp_logo2">
<path transform="matrix(1,0,0,-1,0,37)" d="M 10.00478 3.640259 C 10.00478 2.557693 9.122578 1.680341 8.033781 1.680341 C 6.945347 1.680341 6.063149 2.557693 6.063149 3.640259 C 6.063149 4.722824 6.945347 5.600627 8.033781 5.600627 C 9.122578 5.600627 10.00478 4.722824 10.00478 3.640259 Z " fill-rule="evenodd"/>
</clipPath>
<g clip-path="url(#cp_logo2)">
<clipPath id="cp_logo3">
<path transform="matrix(1,0,0,-1,0,37)" d="M -25 -610 L 350 -610 L 350 57 L -25 57 Z "/>
</clipPath>
<g clip-path="url(#cp_logo3)">
<path transform="matrix(1,0,0,-1,0,37)" d="M 1.063149 -3.319659 L 15.00478 -3.319659 L 15.00478 10.600631 L 1.063149 10.600631 Z " fill="#ffffff"/>
</g>
</g>
<clipPath id="cp_logo4">
<path transform="matrix(1,0,0,-1,0,37)" d="M 23.65975 3.640259 C 23.65975 2.557693 22.77755 1.680341 21.68911 1.680341 C 20.60068 1.680341 19.71812 2.557693 19.71812 3.640259 C 19.71812 4.722824 20.60068 5.600627 21.68911 5.600627 C 22.77755 5.600627 23.65975 4.722824 23.65975 3.640259 Z " fill-rule="evenodd"/>
</clipPath>
<g clip-path="url(#cp_logo4)">
<clipPath id="cp_logo5">
<path transform="matrix(1,0,0,-1,0,37)" d="M -25 -610 L 350 -610 L 350 57 L -25 57 Z "/>
</clipPath>
<g clip-path="url(#cp_logo5)">
<path transform="matrix(1,0,0,-1,0,37)" d="M 14.71812 -3.319659 L 28.65975 -3.319659 L 28.65975 10.600631 L 14.71812 10.600631 Z " fill="#ffffff"/>
</g>
</g>
<clipPath id="cp_logo6">
<path transform="matrix(1,0,0,-1,0,37)" d="M 14.86217 22.40224 C 13.61813 22.40224 12.60981 22.2721 12.60981 21.28222 C 12.60981 20.29242 13.61813 19.042 14.86217 19.042 C 16.10621 19.042 17.11453 20.29242 17.11453 21.28222 C 17.11453 22.2721 16.10621 22.40224 14.86217 22.40224 Z " fill-rule="evenodd"/>
</clipPath>
<g clip-path="url(#cp_logo6)">
<clipPath id="cp_logo7">
<path transform="matrix(1,0,0,-1,0,37)" d="M -25 -610 L 350 -610 L 350 57 L -25 57 Z "/>
</clipPath>
<g clip-path="url(#cp_logo7)">
<path transform="matrix(1,0,0,-1,0,37)" d="M 7.609814 14.042 L 22.114535 14.042 L 22.114535 27.40223 L 7.609814 27.40223 Z " fill="#ffffff"/>
</g>
</g>
<clipPath id="cp_logo8">
<path transform="matrix(1,0,0,-1,0,37)" d="M 40.0802 21.94822 C 40.29059 21.9795 40.48149 22.00297 40.65292 22.01861 C 40.82434 22.03425 40.97629 22.04207 41.10875 22.04207 C 41.24901 22.04207 41.4068 22.03425 41.58212 22.01861 C 41.75744 22.00297 41.9464 21.9795 42.14899 21.94822 L 42.14899 15.37846 L 44.84894 15.37846 C 44.8879 15.18293 44.91322 15.01283 44.92491 14.86813 C 44.9366 14.72344 44.94244 14.59244 44.94244 14.47512 C 44.94244 14.34216 44.9366 14.20334 44.92491 14.05865 C 44.91322 13.91395 44.8879 13.73994 44.84894 13.53659 L 40.0802 13.53659 L 40.0802 21.94822 Z M 45.59697 17.7248 C 45.59697 18.3505 45.66905 18.93121 45.8132 19.46696 C 45.95736 20.00271 46.17943 20.46611 46.47942 20.85717 C 46.77942 21.24823 47.16122 21.55521 47.62485 21.77811 C 48.08848 22.00101 48.63976 22.11246 49.27872 22.11246 C 49.91767 22.11246 50.467 22.00101 50.92673 21.77811 C 51.38647 21.55521 51.76633 21.24823 52.06632 20.85717 C 52.36632 20.46611 52.58839 20.00271 52.73254 19.46696 C 52.87669 18.93121 52.94877 18.3505 52.94877 17.7248 C 52.94877 17.09911 52.87669 16.52231 52.73254 15.99438 C 52.58839 15.46645 52.36632 15.00892 52.06632 14.62177 C 51.76633 14.23462 51.38647 13.93351 50.92673 13.71843 C 50.467 13.50334 49.91767 13.3958 49.27872 13.3958 C 48.63976 13.3958 48.08848 13.50334 47.62485 13.71843 C 47.16122 13.93351 46.77942 14.23462 46.47942 14.62177 C 46.17943 15.00892 45.95736 15.46645 45.8132 15.99438 C 45.66905 16.52231 45.59697 17.09911 45.59697 17.7248 Z M 50.77479 17.7248 C 50.77479 19.42982 50.28 20.28232 49.2904 20.28232 C 48.27743 20.28232 47.77095 19.42982 47.77095 17.7248 C 47.77095 16.8723 47.89368 16.23684 48.13913 15.8184 C 48.38458 15.39997 48.76444 15.19076 49.27872 15.19076 C 50.2761 15.19076 50.77479 16.03543 50.77479 17.7248 Z M 58.50061 18.10022 C 58.71099 18.1315 58.898 18.15497 59.06163 18.17061 C 59.22527 18.18625 59.37721 18.19407 59.51747 18.19407 C 59.64993 18.19407 59.80967 18.18625 59.99668 18.17061 C 60.18369 18.15497 60.3668 18.1315 60.54602 18.10022 L 60.54602 13.82988 C 60.08629 13.65781 59.6324 13.54441 59.18436 13.48966 C 58.73631 13.43491 58.35256 13.40754 58.03308 13.40754 C 57.34738 13.40754 56.7474 13.51508 56.23312 13.73016 C 55.71884 13.94524 55.28834 14.2444 54.94159 14.62763 C 54.59484 15.01087 54.33576 15.4684 54.16433 16.00024 C 53.9929 16.53208 53.90719 17.11084 53.90719 17.73654 C 53.90719 18.36223 53.9968 18.94294 54.17602 19.4787 C 54.35524 20.01445 54.61432 20.47784 54.95328 20.8689 C 55.29223 21.25996 55.71105 21.56498 56.20974 21.78398 C 56.70844 22.00297 57.27335 22.11246 57.90451 22.11246 C 58.27853 22.11246 58.63502 22.08509 58.97397 22.03034 C 59.31293 21.97559 59.68499 21.86219 60.09018 21.69012 C 60.0746 21.36945 60.01616 21.05661 59.91486 20.75159 C 59.81357 20.44656 59.70837 20.18846 59.59928 19.97729 C 59.44344 20.03204 59.30124 20.07897 59.17267 20.11807 C 59.0441 20.15718 58.92138 20.18846 58.8045 20.21193 C 58.68761 20.23539 58.57073 20.25299 58.45385 20.26472 C 58.33697 20.27645 58.2123 20.28232 58.07983 20.28232 C 57.44868 20.28232 56.96168 20.06919 56.61883 19.64294 C 56.27597 19.21668 56.10455 18.58122 56.10455 17.73654 C 56.10455 16.89967 56.27208 16.27594 56.60714 15.86533 C 56.9422 15.45472 57.44088 15.24941 58.10321 15.24941 C 58.25126 15.24941 58.38372 15.26115 58.50061 15.28461 L 58.50061 18.10022 Z M 61.60963 17.7248 C 61.60963 18.3505 61.68171 18.93121 61.82586 19.46696 C 61.97002 20.00271 62.19209 20.46611 62.49208 20.85717 C 62.79208 21.24823 63.17388 21.55521 63.63751 21.77811 C 64.10114 22.00101 64.65242 22.11246 65.29138 22.11246 C 65.93033 22.11246 66.47966 22.00101 66.93939 21.77811 C 67.39913 21.55521 67.77899 21.24823 68.07898 20.85717 C 68.37898 20.46611 68.60105 20.00271 68.7452 19.46696 C 68.88936 18.93121 68.96143 18.3505 68.96143 17.7248 C 68.96143 17.09911 68.88936 16.52231 68.7452 15.99438 C 68.60105 15.46645 68.37898 15.00892 68.07898 14.62177 C 67.77899 14.23462 67.39913 13.93351 66.93939 13.71843 C 66.47966 13.50334 65.93033 13.3958 65.29138 13.3958 C 64.65242 13.3958 64.10114 13.50334 63.63751 13.71843 C 63.17388 13.93351 62.79208 14.23462 62.49208 14.62177 C 62.19209 15.00892 61.97002 15.46645 61.82586 15.99438 C 61.68171 16.52231 61.60963 17.09911 61.60963 17.7248 Z M 66.78745 17.7248 C 66.78745 19.42982 66.29266 20.28232 65.30306 20.28232 C 64.29009 20.28232 63.78361 19.42982 63.78361 17.7248 C 63.78361 16.8723 63.90634 16.23684 64.15179 15.8184 C 64.39724 15.39997 64.7771 15.19076 65.29138 15.19076 C 66.28876 15.19076 66.78745 16.03543 66.78745 17.7248 Z M 76.05609 16.00024 C 76.05609 15.48405 75.96259 15.0578 75.77558 14.72149 C 75.58857 14.38518 75.33143 14.11926 75.00417 13.92373 C 74.6769 13.7282 74.2873 13.59133 73.83536 13.51312 C 73.38342 13.43491 72.89252 13.3958 72.36266 13.3958 C 71.94189 13.3958 71.56398 13.41145 71.22892 13.44273 C 70.89386 13.47402 70.53153 13.51312 70.14193 13.56005 L 70.14193 21.94822 C 70.43803 21.99515 70.76139 22.03425 71.11204 22.06554 C 71.46268 22.09682 71.87176 22.11246 72.33928 22.11246 C 72.78343 22.11246 73.19836 22.07531 73.58406 22.00101 C 73.96977 21.92671 74.30678 21.80157 74.59508 21.6256 C 74.88339 21.44962 75.1113 21.21499 75.27883 20.9217 C 75.44636 20.6284 75.53013 20.25886 75.53013 19.81305 C 75.53013 19.44545 75.44831 19.1111 75.28468 18.80999 C 75.12105 18.50887 74.91456 18.2762 74.66521 18.11195 C 74.84443 18.04156 75.0178 17.94966 75.18533 17.83626 C 75.35286 17.72285 75.50091 17.58207 75.62948 17.41391 C 75.75805 17.24576 75.86129 17.04437 75.93921 16.80973 C 76.01713 16.5751 76.05609 16.30527 76.05609 16.00024 Z M 72.16396 17.07956 L 72.16396 15.10863 C 72.21851 15.10081 72.28669 15.09495 72.3685 15.09104 C 72.45032 15.08713 72.55746 15.08517 72.68993 15.08517 C 72.83798 15.08517 72.98797 15.10081 73.13992 15.1321 C 73.29186 15.16338 73.43017 15.21617 73.55484 15.29048 C 73.67952 15.36478 73.77887 15.46645 73.85289 15.5955 C 73.92691 15.72455 73.96393 15.88684 73.96393 16.08237 C 73.96393 16.45778 73.8412 16.71783 73.59575 16.86252 C 73.3503 17.00722 73.03278 17.07956 72.64317 17.07956 L 72.16396 17.07956 Z M 72.16396 18.74546 L 72.49123 18.74546 C 72.82629 18.74546 73.08732 18.8139 73.27433 18.95077 C 73.46134 19.08764 73.55484 19.32423 73.55484 19.66054 C 73.55484 19.82478 73.52173 19.96165 73.4555 20.07115 C 73.38926 20.18064 73.3055 20.26667 73.2042 20.32924 C 73.1029 20.39181 72.98992 20.43483 72.86525 20.45829 C 72.74057 20.48176 72.6198 20.49349 72.50292 20.49349 L 72.33344 20.49349 C 72.26721 20.49349 72.21072 20.48958 72.16396 20.48176 L 72.16396 18.74546 Z M 81.54949 17.93598 C 81.54949 17.66223 81.51442 17.35721 81.44429 17.0209 L 79.1885 17.0209 L 79.1885 15.355 L 82.1222 15.355 C 82.19233 15.02651 82.22739 14.72931 82.22739 14.46339 C 82.22739 14.17401 82.19233 13.86507 82.1222 13.53659 L 77.11971 13.53659 L 77.11971 21.97168 L 82.05207 21.97168 C 82.08324 21.79962 82.10662 21.63929 82.1222 21.49068 C 82.13779 21.34208 82.14558 21.2013 82.14558 21.06834 C 82.14558 20.81024 82.11441 20.50131 82.05207 20.14154 L 79.1885 20.14154 L 79.1885 18.85105 L 81.44429 18.85105 C 81.51442 18.50692 81.54949 18.2019 81.54949 17.93598 Z M 84.65851 13.56005 C 84.4793 13.52876 84.31566 13.5053 84.16761 13.48966 C 84.01957 13.47402 83.87541 13.4662 83.73516 13.4662 C 83.5949 13.4662 83.43321 13.47597 83.2501 13.49552 C 83.06699 13.51508 82.86245 13.54441 82.63648 13.58351 L 85.25461 21.95995 C 85.4572 21.98341 85.64616 22.00297 85.82148 22.01861 C 85.9968 22.03425 86.17407 22.04207 86.35328 22.04207 C 86.50133 22.04207 86.66302 22.03425 86.83834 22.01861 C 87.01366 22.00297 87.2143 21.98341 87.44028 21.95995 L 90.02334 13.57178 C 89.57919 13.50139 89.18959 13.4662 88.85453 13.4662 C 88.69869 13.4662 88.54285 13.47402 88.38701 13.48966 C 88.23117 13.5053 88.06364 13.52876 87.88442 13.56005 L 87.44028 15.19076 C 87.2221 15.12819 87.01366 15.08126 86.81496 15.04998 C 86.61627 15.01869 86.41952 15.00305 86.22472 15.00305 C 86.0455 15.00305 85.86239 15.01674 85.67538 15.04411 C 85.48837 15.07148 85.29357 15.11254 85.09097 15.16729 L 84.65851 13.56005 Z M 86.29484 19.75439 L 85.51174 16.73934 C 85.64421 16.70024 85.76888 16.66895 85.88576 16.64549 C 86.00264 16.62202 86.12342 16.61029 86.24809 16.61029 C 86.38056 16.61029 86.51107 16.62007 86.63964 16.63962 C 86.76821 16.65917 86.90262 16.6885 87.04288 16.72761 L 86.29484 19.75439 Z M 90.78306 21.94822 C 91.16488 21.98733 91.51746 22.02448 91.84083 22.05967 C 92.16421 22.09487 92.50511 22.11246 92.86354 22.11246 C 93.29211 22.11246 93.72066 22.0714 94.14923 21.98928 C 94.57779 21.90716 94.9596 21.76442 95.29466 21.56107 C 95.62972 21.35772 95.90244 21.08007 96.11283 20.72812 C 96.32321 20.37617 96.4284 19.93037 96.4284 19.39071 C 96.4284 19.10132 96.39529 18.84127 96.32906 18.61055 C 96.26282 18.37982 96.17711 18.17452 96.07192 17.99463 C 95.96672 17.81475 95.84984 17.65833 95.72128 17.52537 C 95.59271 17.39241 95.46609 17.279 95.34141 17.18515 L 97.16475 13.57178 C 96.97774 13.5405 96.7732 13.51703 96.55113 13.50139 C 96.32905 13.48575 96.12841 13.47793 95.94919 13.47793 C 95.79335 13.47793 95.61219 13.48575 95.4057 13.50139 C 95.19921 13.51703 95.01804 13.5405 94.8622 13.57178 L 93.2025 17.40805 L 93.30769 17.46671 C 93.40119 17.51363 93.50444 17.59184 93.61742 17.70134 C 93.73041 17.81084 93.8356 17.94184 93.933 18.09435 C 94.0304 18.24687 94.11222 18.41697 94.17845 18.60468 C 94.24468 18.79239 94.2778 18.98792 94.2778 19.19127 C 94.2778 19.58233 94.16871 19.8678 93.95053 20.04768 C 93.73235 20.22757 93.46353 20.31751 93.14406 20.31751 C 93.06613 20.31751 92.9999 20.3136 92.94536 20.30578 C 92.89081 20.29796 92.85575 20.29014 92.84017 20.28232 L 92.84017 13.57178 C 92.42718 13.50139 92.08823 13.4662 91.8233 13.4662 C 91.535 13.4662 91.18825 13.50139 90.78306 13.57178 L 90.78306 21.94822 Z " fill-rule="evenodd"/>
</clipPath>
<g clip-path="url(#cp_logo8)">
<clipPath id="cp_logo9">
<path transform="matrix(1,0,0,-1,0,37)" d="M -25 -610 L 350 -610 L 350 57 L -25 57 Z "/>
</clipPath>
<g clip-path="url(#cp_logo9)">
<path transform="matrix(1,0,0,-1,0,37)" d="M 35.0802 8.395805 L 102.16475 8.395805 L 102.16475 27.112465 L 35.0802 27.112465 Z " fill="#ffffff"/>
</g>
</g>
</g>
</svg>
