<?xml version="1.0" encoding="UTF-8"?>
<!DOCTYPE svg  PUBLIC '-//W3C//DTD SVG 1.1//EN'  'http://www.w3.org/Graphics/SVG/1.1/DTD/svg11.dtd'>
<svg width="160pt" height="150pt" version="1.1" viewBox="0 0 160 150" xmlns="http://www.w3.org/2000/svg">
<g enable-background="new">
<clipPath id="o">
<path transform="matrix(1,0,0,-1,0,150)" d="m22.955 97c1.5952 2.0805 3.333 4.0629 5.207 5.9537-3.8129 2.4142-6.371 6.657-6.371 11.538 0 7.5272 6.0662 13.648 13.527 13.648 6.6725 0 12.194-4.9069 13.309-11.322 2.3798 1.0599 4.8374 1.9955 7.3729 2.8002-2.2923 9.3787-10.677 16.382-20.682 16.382-11.753 0-21.318-9.6502-21.318-21.509 0-7.2196 3.547-13.595 8.9551-17.491z" fill-rule="evenodd"/>
</clipPath>
<g clip-path="url(#o)">
<clipPath id="n">
<path transform="matrix(1,0,0,-1,0,150)" d="m-108-299h375v667h-375z"/>
</clipPath>
<g clip-path="url(#n)">
<path transform="matrix(1,0,0,-1,0,150)" d="m9 92h52v49h-52z" fill="#e990f9"/>
</g>
</g>
<clipPath id="h">
<path transform="matrix(1,0,0,-1,0,150)" d="m0.1956 149.93h159.65v-149.92h-159.65v149.92z" fill-rule="evenodd"/>
</clipPath>
<g clip-path="url(#h)">
<clipPath id="g">
<path transform="matrix(1,0,0,-1,0,150)" d="m-108-299h375v667h-375z"/>
</clipPath>
<g clip-path="url(#g)">
<clipPath id="f">
<path transform="matrix(1,0,0,-1,0,150)" d="m0 0h160v150h-160z"/>
</clipPath>
<g clip-path="url(#f)">
<clipPath id="e">
<path transform="matrix(1,0,0,-1,0,150)" d="m124.45 127.79c7.5012 0 13.601-6.0907 13.601-13.581 0-4.9449-2.6895-9.2451-6.6472-11.622 1.8974-1.8816 3.6415-3.8771 5.2323-5.9638 5.5779 3.8641 9.2454 10.3 9.2454 17.572 0 11.814-9.6137 21.404-21.431 21.404-10.1 0-18.569-7.0087-20.822-16.404 2.5461-0.8138 5.0302-1.7676 7.4231-2.8256 1.0595 6.4618 6.6373 11.42 13.399 11.42z" fill-rule="evenodd"/>
</clipPath>
<g clip-path="url(#e)">
<clipPath id="d">
<path transform="matrix(1,0,0,-1,0,150)" d="m0 0h160v150h-160z"/>
</clipPath>
<g clip-path="url(#d)">
<path transform="matrix(1,0,0,-1,0,150)" d="m98.632 91.621h52.253v48.976h-52.253z" fill="#e990f9"/>
</g>
</g>
<clipPath id="c">
<path transform="matrix(1,0,0,-1,0,150)" d="m4.815 65.735c0-36.241 33.731-65.731 75.208-65.731s75.208 29.49 75.208 65.731c0 8.2783-1.731 16.338-5.1703 23.969 6.2526 6.6116 9.78 15.388 9.78 24.503 0 19.698-16.046 35.721-35.769 35.721-13.526 0-25.672-7.4905-31.785-19.33-8.15 1.1719-16.558 1.1719-24.717-0.0228-6.1027 11.849-18.263 19.353-31.798 19.353-19.726 0-35.772-16.023-35.772-35.721 0-9.1931 3.5795-18.018 9.9202-24.643-3.3871-7.5914-5.1052-15.603-5.1052-23.829zm3.0025 48.472c0 15.388 12.544 27.914 27.954 27.914 11.397 0 21.558-6.8166 25.875-17.37l1.1964-2.9265 3.1198 0.5599c9.1834 1.6928 18.784 1.6928 27.941 0.0391l3.1068-0.5599 1.1964 2.9232c4.3293 10.531 14.478 17.335 25.865 17.335 15.407 0 27.951-12.526 27.951-27.914 0-7.8844-3.4002-15.45-9.3106-20.753l-2.2266-1.9955 1.3497-2.6694c2.3178-4.5672 3.9218-9.3232 4.7889-14.193 0.5705-2.9884 0.8639-6.0386 0.8639-9.167 0-15.883-7.6023-30.265-19.876-40.665-12.202-10.466-29.037-16.937-47.589-16.937-13.04 0-25.216 3.2032-35.541 8.734-19.283 10.111-32.131 28.217-32.131 48.869 0 8.3662 2.1255 16.303 5.9104 23.461l1.2323 2.4675-2.2396 1.9955c-5.9984 5.3029-9.4377 12.907-9.4377 20.854z" fill-rule="evenodd"/>
</clipPath>
<g clip-path="url(#c)">
<clipPath id="b">
<path transform="matrix(1,0,0,-1,0,150)" d="m0 0h160v150h-160z"/>
</clipPath>
<g clip-path="url(#b)">
<path transform="matrix(1,0,0,-1,0,150)" d="m-5-4.9967h169.84v159.92h-169.84z" fill="#e990f9"/>
</g>
</g>
</g>
</g>
</g>
<clipPath id="a">
<path transform="matrix(1,0,0,-1,0,150)" d="m32 46.495c0-18.475 21.765-33.495 48.5-33.495 26.745 0 48.5 15.02 48.5 33.495 0 18.472-21.755 33.505-48.5 33.505-26.735 0-48.5-15.033-48.5-33.505zm48.5 3.9269c-6.1442 0-10.896 2.9411-10.896 5.463 0 2.5186 4.7512 5.463 10.896 5.463s10.896-2.9444 10.896-5.463c0-2.5219-4.7512-5.463-10.896-5.463zm0 21.711c22.416 0 40.642-11.502 40.642-25.638 0-13.307-16.144-24.259-36.722-25.51v21.862c8.5706 1.2544 14.829 6.5241 14.829 13.038 0 7.4706-8.237 13.317-18.75 13.317s-18.753-5.8462-18.753-13.317c0-6.5143 6.2587-11.784 14.829-13.038v-21.862c-20.575 1.2511-36.722 12.203-36.722 25.51 0 14.136 18.227 25.638 40.646 25.638z" fill-rule="evenodd"/>
</clipPath>
<g clip-path="url(#a)">
<clipPath id="m">
<path transform="matrix(1,0,0,-1,0,150)" d="m-108-299h375v667h-375z"/>
</clipPath>
<g clip-path="url(#m)">
<path transform="matrix(1,0,0,-1,0,150)" d="m27 8h107v77h-107z" fill="#e990f9"/>
</g>
</g>
<clipPath id="l">
<path transform="matrix(1,0,0,-1,0,150)" d="m50.999 89c-6.665 0-6.665-10 0-10 6.6618 0 6.6747 10 0 10z" fill-rule="evenodd"/>
</clipPath>
<g clip-path="url(#l)">
<clipPath id="k">
<path transform="matrix(1,0,0,-1,0,150)" d="m-108-299h375v667h-375z"/>
</clipPath>
<g clip-path="url(#k)">
<path transform="matrix(1,0,0,-1,0,150)" d="m41 74h20v20h-20z" fill="#e990f9"/>
</g>
</g>
<clipPath id="j">
<path transform="matrix(1,0,0,-1,0,150)" d="m109 79c6.6683 0 6.6683 10 0 10-6.6651 0-6.6651-10 0-10z" fill-rule="evenodd"/>
</clipPath>
<g clip-path="url(#j)">
<clipPath id="i">
<path transform="matrix(1,0,0,-1,0,150)" d="m-108-299h375v667h-375z"/>
</clipPath>
<g clip-path="url(#i)">
<path transform="matrix(1,0,0,-1,0,150)" d="m99 74h20v20h-20z" fill="#e990f9"/>
</g>
</g>
</g>
</svg>
