<?xml version="1.0" standalone="no"?>
<!DOCTYPE svg PUBLIC "-//W3C//DTD SVG 20010904//EN"
 "http://www.w3.org/TR/2001/REC-SVG-20010904/DTD/svg10.dtd">
<svg version="1.0" xmlns="http://www.w3.org/2000/svg"
 width="784.000000pt" height="784.000000pt" viewBox="0 0 784.000000 784.000000"
 preserveAspectRatio="xMidYMid meet">
<metadata>
Created by potrace 1.14, written by Peter Selinger 2001-2017
</metadata>
<g transform="translate(0.000000,784.000000) scale(0.100000,-0.100000)"
fill="#000000" stroke="none">
<path d="M2020 7828 c-36 -4 -85 -12 -110 -18 -25 -7 -52 -13 -60 -15 -45 -10
-200 -85 -200 -97 0 -5 -5 -8 -11 -8 -5 0 -29 -15 -51 -32 -148 -118 -252
-277 -298 -458 -23 -90 -31 -236 -18 -310 5 -25 10 -54 12 -65 12 -63 76 -227
96 -245 3 -3 18 -25 34 -50 71 -110 190 -211 318 -271 37 -18 45 -26 39 -38
-8 -14 -60 -162 -65 -186 -13 -53 -19 -74 -26 -95 -5 -14 -11 -41 -14 -60 -3
-19 -10 -60 -16 -90 -17 -93 -24 -199 -24 -335 1 -111 9 -270 14 -270 1 0 3
-11 6 -25 16 -100 27 -159 35 -185 4 -16 16 -57 25 -90 40 -139 146 -382 205
-467 11 -14 19 -31 19 -37 0 -6 4 -11 9 -11 5 0 11 -8 15 -17 6 -19 23 -48 41
-69 6 -7 35 -45 65 -84 30 -40 74 -93 97 -119 24 -25 43 -48 43 -51 0 -3 -53
-54 -117 -115 -265 -251 -526 -520 -658 -680 -22 -27 -46 -54 -52 -61 -7 -7
-13 -17 -13 -23 0 -6 -4 -11 -9 -11 -10 0 -171 -215 -243 -325 -68 -105 -92
-147 -167 -300 -128 -262 -182 -471 -183 -705 0 -505 281 -886 683 -925 63 -6
65 -5 66 17 2 56 13 150 18 159 3 4 7 21 9 36 6 44 53 179 87 246 96 194 256
361 434 455 65 34 162 71 210 79 17 2 50 8 74 13 72 13 249 3 332 -18 216 -57
413 -199 548 -395 39 -57 121 -219 121 -239 0 -8 3 -18 7 -22 4 -3 8 -12 9
-19 2 -7 10 -38 19 -70 9 -32 18 -76 20 -98 2 -22 7 -44 10 -49 7 -11 7 -234
0 -290 -30 -247 -133 -467 -303 -647 l-40 -43 830 0 830 0 -45 47 c-25 27 -56
62 -70 78 -24 30 -101 146 -102 155 -1 3 -13 29 -28 59 -15 30 -27 61 -27 68
0 7 -5 13 -12 13 -6 0 -9 2 -6 5 3 3 -3 34 -14 68 -10 34 -21 77 -24 97 -3 19
-8 38 -10 42 -11 18 -19 275 -10 323 2 11 7 45 11 75 22 164 124 390 239 529
53 64 213 204 236 206 3 1 21 11 40 23 42 26 143 65 225 87 111 30 367 23 445
-11 8 -4 23 -9 32 -10 38 -8 188 -88 249 -134 97 -73 196 -181 258 -283 34
-57 49 -86 87 -172 36 -83 81 -282 79 -353 -1 -42 3 -43 132 -16 188 38 373
169 459 324 10 19 22 37 25 40 21 20 80 180 104 283 34 151 38 375 9 497 -3
14 -10 45 -14 70 -5 25 -17 70 -26 100 -10 30 -18 60 -20 65 -19 90 -233 511
-265 523 -5 2 -9 9 -9 16 0 7 -21 41 -47 76 -71 99 -157 214 -163 220 -3 3
-33 39 -67 80 -33 41 -75 91 -93 110 -17 19 -59 66 -93 104 -77 87 -365 376
-516 519 l-114 107 20 23 c11 12 33 36 48 52 38 41 180 231 196 264 8 14 20
32 27 39 6 7 12 19 12 27 0 7 3 15 8 17 15 7 169 338 156 338 -2 0 0 8 5 19
15 28 69 230 77 287 3 27 8 52 10 55 16 28 25 412 11 534 -9 77 -26 170 -46
255 -7 25 -13 53 -16 62 -2 9 -20 66 -41 125 -20 59 -33 108 -27 110 67 23
300 200 302 230 1 7 7 16 14 20 28 17 121 176 110 187 -4 3 -2 6 4 6 9 0 18
20 24 55 1 6 6 21 11 35 5 14 12 34 14 45 17 90 20 121 19 200 -11 542 -519
924 -1050 788 -33 -8 -66 -19 -72 -25 -7 -6 -13 -8 -13 -4 0 10 -96 -41 -170
-89 -105 -69 -197 -169 -260 -282 l-23 -42 -36 16 c-78 34 -207 85 -221 88 -8
2 -40 12 -70 23 -30 11 -57 19 -60 20 -3 0 -23 5 -45 10 -22 6 -51 13 -65 16
-14 3 -36 7 -50 10 -132 29 -146 31 -305 42 -281 21 -549 -3 -800 -71 -33 -9
-67 -18 -75 -20 -28 -8 -165 -55 -185 -65 -95 -45 -160 -69 -163 -62 -11 34
-120 180 -168 227 -177 170 -430 259 -664 233z m208 -496 c93 -36 160 -101
203 -196 13 -28 12 -30 -46 -80 -114 -97 -260 -250 -335 -349 -39 -52 -54 -55
-112 -20 -21 13 -41 23 -45 23 -17 0 -93 94 -119 146 -24 51 -28 71 -28 144 1
69 5 95 26 141 80 176 278 259 456 191z m3547 13 c38 -8 115 -50 148 -81 93
-86 135 -228 103 -353 -13 -55 -63 -134 -108 -174 -42 -36 -114 -75 -143 -76
-6 -1 -31 27 -55 61 -49 67 -243 267 -329 339 l-54 44 22 48 c41 90 133 166
231 192 46 12 131 12 185 0z m-2770 -1724 c69 -28 109 -90 107 -168 -2 -100
-90 -180 -187 -169 -56 6 -86 20 -116 52 -92 102 -55 251 72 288 50 15 82 14
124 -3z m1923 -5 c56 -29 91 -84 94 -146 2 -50 -3 -67 -29 -108 -72 -110 -243
-103 -303 14 -64 123 25 265 162 258 25 -2 60 -9 76 -18z m-903 -401 c125 -8
200 -16 265 -31 14 -3 36 -8 50 -11 77 -14 240 -65 317 -98 74 -32 167 -80
181 -92 7 -7 19 -13 27 -13 7 0 15 -3 17 -7 2 -5 29 -26 61 -47 78 -54 196
-170 247 -246 36 -53 88 -153 97 -185 54 -206 47 -325 -29 -495 -51 -112 -184
-270 -287 -341 -28 -19 -51 -37 -51 -41 0 -5 -4 -8 -9 -8 -9 0 -109 -58 -121
-70 -3 -3 -9 -6 -15 -7 -5 -1 -44 -17 -85 -36 -177 -82 -372 -133 -585 -154
-134 -13 -418 -7 -515 11 -14 3 -41 7 -60 10 -32 5 -50 9 -105 20 -124 27
-239 68 -370 131 -146 71 -152 75 -265 163 -148 116 -240 239 -297 400 -25 68
-28 91 -28 202 0 162 28 251 121 390 39 60 155 190 168 190 3 0 15 8 25 18 38
34 56 47 114 85 67 43 176 99 245 126 26 10 56 22 67 26 11 5 23 9 28 10 4 2
8 3 10 5 1 1 9 3 17 5 8 3 58 16 110 30 52 14 111 28 130 31 19 3 49 8 65 11
52 9 87 12 210 19 66 4 122 8 123 10 2 1 9 1 15 -1 7 -2 57 -6 112 -10z"/>
<path d="M3727 4744 c-1 -2 -25 -6 -52 -10 -148 -19 -223 -67 -250 -157 -15
-51 -12 -134 6 -168 5 -10 7 -19 3 -19 -3 0 1 -11 10 -25 9 -14 14 -25 11 -25
-4 0 3 -13 14 -29 12 -16 21 -33 21 -39 0 -20 138 -150 190 -179 94 -51 216
-71 298 -47 23 7 45 13 47 13 3 0 31 12 63 28 68 33 187 149 219 213 44 88 51
112 58 185 12 143 -69 223 -255 251 -42 6 -378 13 -383 8z"/>
<path d="M2319 1166 c-356 -116 -396 -593 -64 -765 49 -25 156 -48 210 -44 37
2 80 9 80 13 0 1 7 3 16 5 34 6 106 44 144 74 147 119 196 327 115 496 -31 66
-89 134 -146 173 -96 66 -240 85 -355 48z"/>
<path d="M5240 1175 c-25 -7 -68 -24 -97 -38 -56 -29 -147 -114 -158 -147 -3
-11 -10 -20 -14 -20 -18 0 -46 -127 -46 -205 0 -158 86 -295 229 -364 198 -95
419 -33 538 151 52 83 76 211 55 308 -14 71 -68 162 -127 217 -33 31 -150 100
-150 89 0 -3 -12 -1 -27 5 -39 16 -150 17 -203 4z"/>
</g>
</svg>
